<svg width="53" height="11" viewBox="0 0 53 11" fill="none" xmlns="http://www.w3.org/2000/svg">
<path d="M5.34561 0.0715332L6.54578 3.76526H10.4296L7.28752 6.04811L8.48769 9.74184L5.34561 7.45899L2.20354 9.74184L3.40371 6.04811L0.261633 3.76526H4.14545L5.34561 0.0715332Z" fill="#768134"/>
<path d="M15.6092 0.0715332L16.8093 3.76526H20.6931L17.5511 6.04811L18.7512 9.74184L15.6092 7.45899L12.4671 9.74184L13.6673 6.04811L10.5252 3.76526H14.409L15.6092 0.0715332Z" fill="#768134"/>
<path d="M26.3004 0.0715332L27.5006 3.76526H31.3844L28.2424 6.04811L29.4425 9.74184L26.3004 7.45899L23.1584 9.74184L24.3585 6.04811L21.2165 3.76526H25.1003L26.3004 0.0715332Z" fill="#768134"/>
<path d="M36.6709 0.0715332L37.8711 3.76526H41.7549L38.6128 6.04811L39.813 9.74184L36.6709 7.45899L33.5289 9.74184L34.729 6.04811L31.587 3.76526H35.4708L36.6709 0.0715332Z" fill="#768134"/>
<path d="M47.3621 0.0715332L48.5623 3.76526H52.4461L49.304 6.04811L50.5042 9.74184L47.3621 7.45899L44.22 9.74184L45.4202 6.04811L42.2781 3.76526H46.1619L47.3621 0.0715332Z" fill="#DDD9D9"/>
</svg>
