<svg width="55" height="11" viewBox="0 0 55 11" fill="none" xmlns="http://www.w3.org/2000/svg">
<path d="M5.5 0L6.73483 3.80041H10.7308L7.49799 6.14919L8.73282 9.94959L5.5 7.60081L2.26718 9.94959L3.50201 6.14919L0.269189 3.80041H4.26517L5.5 0Z" fill="#768134"/>
<path d="M16.0601 0L17.2949 3.80041H21.2909L18.0581 6.14919L19.2929 9.94959L16.0601 7.60081L12.8272 9.94959L14.0621 6.14919L10.8292 3.80041H14.8252L16.0601 0Z" fill="#768134"/>
<path d="M27.0601 0L28.2949 3.80041H32.2909L29.0581 6.14919L30.2929 9.94959L27.0601 7.60081L23.8272 9.94959L25.0621 6.14919L21.8292 3.80041H25.8252L27.0601 0Z" fill="#768134"/>
<path d="M37.73 0L38.9648 3.80041H42.9608L39.728 6.14919L40.9628 9.94959L37.73 7.60081L34.4972 9.94959L35.732 6.14919L32.4992 3.80041H36.4952L37.73 0Z" fill="#768134"/>
<path d="M48.73 0L49.9648 3.80041H53.9608L50.728 6.14919L51.9628 9.94959L48.73 7.60081L45.4972 9.94959L46.732 6.14919L43.4992 3.80041H47.4952L48.73 0Z" fill="#DDD9D9"/>
</svg>
